<svg width="25" height="25" viewBox="0 0 25 25" fill="none" xmlns="http://www.w3.org/2000/svg">
<path d="M9.41113 18.4297C9.31113 18.4297 9.22113 18.4097 9.12113 18.3697C8.84113 18.2597 8.66113 17.9797 8.66113 17.6797V11.6797C8.66113 11.2697 9.00113 10.9297 9.41113 10.9297C9.82113 10.9297 10.1611 11.2697 10.1611 11.6797V15.8697L10.8811 15.1497C11.1711 14.8597 11.6511 14.8597 11.9411 15.1497C12.2311 15.4397 12.2311 15.9197 11.9411 16.2097L9.94113 18.2097C9.80113 18.3497 9.60113 18.4297 9.41113 18.4297Z" fill="white"/>
<path d="M9.41114 18.4297C9.22114 18.4297 9.03114 18.3597 8.88114 18.2097L6.88114 16.2097C6.59114 15.9197 6.59114 15.4397 6.88114 15.1497C7.17114 14.8597 7.65114 14.8597 7.94114 15.1497L9.94114 17.1497C10.2311 17.4397 10.2311 17.9197 9.94114 18.2097C9.79114 18.3597 9.60114 18.4297 9.41114 18.4297Z" fill="white"/>
<path d="M15.4111 23.4297H9.41113C3.98113 23.4297 1.66113 21.1097 1.66113 15.6797V9.67972C1.66113 4.24972 3.98113 1.92972 9.41113 1.92972H14.4111C14.8211 1.92972 15.1611 2.26972 15.1611 2.67972C15.1611 3.08972 14.8211 3.42972 14.4111 3.42972H9.41113C4.80113 3.42972 3.16113 5.06972 3.16113 9.67972V15.6797C3.16113 20.2897 4.80113 21.9297 9.41113 21.9297H15.4111C20.0211 21.9297 21.6611 20.2897 21.6611 15.6797V10.6797C21.6611 10.2697 22.0011 9.92972 22.4111 9.92972C22.8211 9.92972 23.1611 10.2697 23.1611 10.6797V15.6797C23.1611 21.1097 20.8411 23.4297 15.4111 23.4297Z" fill="white"/>
<path d="M22.4111 11.4297H18.4111C14.9911 11.4297 13.6611 10.0997 13.6611 6.67972V2.67972C13.6611 2.37972 13.8411 2.09972 14.1211 1.98972C14.4011 1.86972 14.7211 1.93972 14.9411 2.14972L22.9411 10.1497C23.1511 10.3597 23.2211 10.6897 23.1011 10.9697C22.9811 11.2497 22.7111 11.4297 22.4111 11.4297ZM15.1611 4.48972V6.67972C15.1611 9.25972 15.8311 9.92972 18.4111 9.92972H20.6011L15.1611 4.48972Z" fill="white"/>
</svg>
